<svg width="25" height="22" viewBox="0 0 25 22" fill="none" xmlns="http://www.w3.org/2000/svg">
<path d="M2.34375 10.9375H6.25V7.8125C6.25 6.08887 4.84863 4.6875 3.125 4.6875H2.73438C2.08496 4.6875 1.5625 4.16504 1.5625 3.51562V1.17188C1.5625 0.522461 2.08496 0 2.73438 0H3.125C7.44141 0 10.9375 3.49609 10.9375 7.8125V19.5312C10.9375 20.8252 9.8877 21.875 8.59375 21.875H2.34375C1.0498 21.875 0 20.8252 0 19.5312V13.2812C0 11.9873 1.0498 10.9375 2.34375 10.9375ZM16.4062 10.9375H20.3125V7.8125C20.3125 6.08887 18.9111 4.6875 17.1875 4.6875H16.7969C16.1475 4.6875 15.625 4.16504 15.625 3.51562V1.17188C15.625 0.522461 16.1475 0 16.7969 0H17.1875C21.5039 0 25 3.49609 25 7.8125V19.5312C25 20.8252 23.9502 21.875 22.6562 21.875H16.4062C15.1123 21.875 14.0625 20.8252 14.0625 19.5312V13.2812C14.0625 11.9873 15.1123 10.9375 16.4062 10.9375Z" fill="#D0D0D0"/>
</svg>
