<svg width="30" height="30" viewBox="0 0 30 30" fill="none" xmlns="http://www.w3.org/2000/svg">
<path d="M14.4476 9.7103L16.3698 13.2351L17.2297 9.3134C18.1017 5.33646 20.2672 2.97836 22.4198 2.01921C24.5784 1.05737 26.7162 1.45955 28.0469 2.96385C28.4538 3.42381 28.7242 4.49612 28.247 6.52416C27.7923 8.45626 26.7458 10.8508 25.2139 13.4429C22.3716 18.2523 18.0098 23.4885 13.2471 27.3596C9.70028 23.2466 6.52003 19.1366 4.35631 15.3706C1.95517 11.1914 1.03088 7.81629 1.72472 5.41937C2.0553 4.27735 2.68768 3.58658 3.45266 3.20771C4.24735 2.81413 5.32553 2.69112 6.60489 2.97709C9.17222 3.55095 12.2791 5.73391 14.4476 9.7103Z" fill="#E00F0F" stroke="#AE0C0C" stroke-width="3"/>
</svg>
